<svg xmlns="http://www.w3.org/2000/svg" width="235" height="25" viewBox="0 0 235 25">
  <g id="Group_5" data-name="Group 5" transform="translate(-0.9 -0.444)">
    <path id="coffeeroasters" d="M195.38,23.819a7.634,7.634,0,0,1-1.043-.364,1.23,1.23,0,0,0-1.287,0l-.8.364a1.71,1.71,0,0,1-.676.182.731.731,0,0,1-.456-.166,1.158,1.158,0,0,1-.327-.661l-.5-3.289a2.382,2.382,0,0,1-.049-1.058.721.721,0,0,1,.44-.562.838.838,0,0,1,.708-.017,1.539,1.539,0,0,1,.628.529,17.886,17.886,0,0,0,1.679,2.264,4.91,4.91,0,0,0,1.459,1.165,3.415,3.415,0,0,0,1.491.339,1.712,1.712,0,0,0,1.238-.4,1.348,1.348,0,0,0,.408-1.009,1.564,1.564,0,0,0-.237-.842,2.131,2.131,0,0,0-.864-.7,9.5,9.5,0,0,0-1.8-.636,10.667,10.667,0,0,1-3-1.206,4.986,4.986,0,0,1-1.768-1.786,4.926,4.926,0,0,1-.579-2.43,4.664,4.664,0,0,1,.775-2.7,5.014,5.014,0,0,1,2.119-1.744,7.223,7.223,0,0,1,3.023-.612,5.647,5.647,0,0,1,1.646.2,5.248,5.248,0,0,1,.986.4,1.233,1.233,0,0,0,.529.2,1.47,1.47,0,0,0,.579-.19q.383-.19.775-.372a1.617,1.617,0,0,1,.652-.182.606.606,0,0,1,.473.2,1.28,1.28,0,0,1,.245.678l.424,3.041a2.763,2.763,0,0,1,.032,1.017.575.575,0,0,1-.424.455.8.8,0,0,1-.587-.108,2.229,2.229,0,0,1-.619-.553,10.383,10.383,0,0,0-2.176-2.545,3.419,3.419,0,0,0-2.094-.744,1.819,1.819,0,0,0-1.206.347,1.136,1.136,0,0,0-.408.909,1.476,1.476,0,0,0,.179.711,1.753,1.753,0,0,0,.661.62,6.643,6.643,0,0,0,1.361.57,15.843,15.843,0,0,1,3.667,1.545,4.769,4.769,0,0,1,1.825,1.877A5.507,5.507,0,0,1,203,19.008a4.579,4.579,0,0,1-1.549,3.653A6.607,6.607,0,0,1,197,24,6.111,6.111,0,0,1,195.38,23.819Zm-55.79,0a7.634,7.634,0,0,1-1.043-.364,1.231,1.231,0,0,0-1.288,0l-.8.364a1.71,1.71,0,0,1-.677.182.731.731,0,0,1-.456-.166,1.158,1.158,0,0,1-.326-.661l-.5-3.289a2.4,2.4,0,0,1-.049-1.058.725.725,0,0,1,.44-.562.84.84,0,0,1,.709-.017,1.532,1.532,0,0,1,.627.529,17.882,17.882,0,0,0,1.679,2.264,4.908,4.908,0,0,0,1.458,1.165,3.421,3.421,0,0,0,1.491.339,1.714,1.714,0,0,0,1.239-.4,1.348,1.348,0,0,0,.408-1.009,1.564,1.564,0,0,0-.237-.842,2.131,2.131,0,0,0-.864-.7,9.549,9.549,0,0,0-1.8-.636,10.656,10.656,0,0,1-3-1.206,4.986,4.986,0,0,1-1.768-1.786,4.916,4.916,0,0,1-.579-2.43,4.671,4.671,0,0,1,.774-2.7,5.022,5.022,0,0,1,2.119-1.744,7.22,7.22,0,0,1,3.023-.612,5.652,5.652,0,0,1,1.646.2,5.248,5.248,0,0,1,.986.4,1.23,1.23,0,0,0,.529.2,1.475,1.475,0,0,0,.579-.19q.383-.19.774-.372a1.621,1.621,0,0,1,.652-.182.606.606,0,0,1,.473.2,1.273,1.273,0,0,1,.244.678l.424,3.041a2.748,2.748,0,0,1,.033,1.017.577.577,0,0,1-.424.455.8.8,0,0,1-.587-.108,2.217,2.217,0,0,1-.619-.553,10.422,10.422,0,0,0-2.176-2.545,3.419,3.419,0,0,0-2.094-.744,1.817,1.817,0,0,0-1.206.347,1.136,1.136,0,0,0-.408.909,1.466,1.466,0,0,0,.179.711,1.746,1.746,0,0,0,.661.62,6.643,6.643,0,0,0,1.361.57,15.834,15.834,0,0,1,3.667,1.545,4.778,4.778,0,0,1,1.826,1.877,5.507,5.507,0,0,1,.521,2.462,4.578,4.578,0,0,1-1.548,3.653A6.607,6.607,0,0,1,141.212,24,6.111,6.111,0,0,1,139.59,23.819ZM163.329,23a6.819,6.819,0,0,1-2.7-2.661,7.886,7.886,0,0,1-.97-3.959,8.749,8.749,0,0,1,.937-4.14,6.689,6.689,0,0,1,2.714-2.769,8.638,8.638,0,0,1,4.27-.992,7.528,7.528,0,0,1,3.651.835,5.913,5.913,0,0,1,2.355,2.264,6.269,6.269,0,0,1,.823,3.181,1.691,1.691,0,0,1-.408,1.2l-.065.065a1.566,1.566,0,0,1-1.108.374H165.38l.016.076a4.792,4.792,0,0,0,1.012,2.18,4.116,4.116,0,0,0,3.26,1.4,4.432,4.432,0,0,0,2.307-.595A2.928,2.928,0,0,0,173.32,17.8a1.24,1.24,0,0,1,.35-.29.643.643,0,0,1,.269-.074.355.355,0,0,1,.277.131.689.689,0,0,1,.114.446,5.313,5.313,0,0,1-.88,2.967,6.29,6.29,0,0,1-2.462,2.157,7.9,7.9,0,0,1-3.65.81A8.182,8.182,0,0,1,163.329,23ZM150.4,22.744a5.088,5.088,0,0,1-1.247-3.8V11.471a1.66,1.66,0,0,0-.065-.529.555.555,0,0,0-.326-.3l-.766-.248a.68.68,0,0,1-.359-.322,1.208,1.208,0,0,1-.081-.472.736.736,0,0,1,.244-.57.859.859,0,0,1,.6-.223h.8a.542.542,0,0,0,.31-.116,2.594,2.594,0,0,0,.44-.463L152.963,5.7a2.824,2.824,0,0,1,.652-.6,1.212,1.212,0,0,1,.652-.207.758.758,0,0,1,.587.231l.044.055a1.141,1.141,0,0,1,.167.672V8.81h3.406a.867.867,0,0,1,.554.157.588.588,0,0,1,.2.488.993.993,0,0,1-.408.794l-.06.045a2.194,2.194,0,0,1-1.243.285h-2.445v7.538a3.234,3.234,0,0,0,.416,1.834,1.5,1.5,0,0,0,1.85.446,2.008,2.008,0,0,0,.53-.389,4.377,4.377,0,0,0,.448-.536c.141-.2.277-.4.408-.6a.243.243,0,0,1,.285.059.7.7,0,0,1,.105.5,5.258,5.258,0,0,1-.742,2.355,4.355,4.355,0,0,1-1.7,1.587,5.362,5.362,0,0,1-2.543.571A5.159,5.159,0,0,1,150.4,22.744Zm-23.226.5-.1-.084a2.22,2.22,0,0,1-.688-.96l-.024-.074-.023.029a4.351,4.351,0,0,1-1.55,1.188,6.3,6.3,0,0,1-2.738.6,4.573,4.573,0,0,1-3.137-1.041,3.39,3.39,0,0,1-1.182-2.661,3.816,3.816,0,0,1,1.719-3.323,9.253,9.253,0,0,1,5.224-1.19l.176,0a5.486,5.486,0,0,1,.911.086l.086.019V11.025a1.438,1.438,0,0,0-.269-.918.877.877,0,0,0-.725-.338,1.021,1.021,0,0,0-.709.257.917.917,0,0,0-.285.719V12a2.615,2.615,0,0,1-.814,1.992,3.122,3.122,0,0,1-2.233.769,2.546,2.546,0,0,1-1.769-.554,2.063,2.063,0,0,1-.611-1.612,2.956,2.956,0,0,1,.823-1.941,5.925,5.925,0,0,1,2.462-1.562,11.766,11.766,0,0,1,4.082-.612,7.278,7.278,0,0,1,4.621,1.2,4.109,4.109,0,0,1,1.475,3.38v7.305a.838.838,0,0,0,.139.5.482.482,0,0,0,.416.191.638.638,0,0,0,.366-.116.7.7,0,0,0,.253-.413.321.321,0,0,1,.114-.1.312.312,0,0,1,.147-.033.324.324,0,0,1,.285.166.753.753,0,0,1,.105.413,2.454,2.454,0,0,1-.431,1.273,3.609,3.609,0,0,1-1.312,1.2,4.478,4.478,0,0,1-2.249.5A4.08,4.08,0,0,1,127.17,23.248ZM74.045,23a6.819,6.819,0,0,1-2.7-2.661,7.9,7.9,0,0,1-.97-3.959,8.749,8.749,0,0,1,.938-4.14,6.681,6.681,0,0,1,2.714-2.769A8.641,8.641,0,0,1,78.3,8.479a7.527,7.527,0,0,1,3.65.835A5.913,5.913,0,0,1,84.3,11.579a6.26,6.26,0,0,1,.824,3.181,1.691,1.691,0,0,1-.408,1.2l-.065.065a1.568,1.568,0,0,1-1.109.374H76.1l.016.076a4.792,4.792,0,0,0,1.013,2.18,4.115,4.115,0,0,0,3.26,1.4,4.426,4.426,0,0,0,2.306-.595A2.921,2.921,0,0,0,84.036,17.8a1.229,1.229,0,0,1,.351-.29.637.637,0,0,1,.268-.074.354.354,0,0,1,.277.131.684.684,0,0,1,.114.446,5.314,5.314,0,0,1-.88,2.967,6.287,6.287,0,0,1-2.461,2.157,7.9,7.9,0,0,1-3.651.81A8.187,8.187,0,0,1,74.045,23ZM58.463,23a6.825,6.825,0,0,1-2.7-2.661A7.9,7.9,0,0,1,54.8,16.38a8.749,8.749,0,0,1,.937-4.14,6.681,6.681,0,0,1,2.714-2.769,8.641,8.641,0,0,1,4.271-.992,7.524,7.524,0,0,1,3.65.835,5.907,5.907,0,0,1,2.355,2.264,6.26,6.26,0,0,1,.824,3.181,1.691,1.691,0,0,1-.408,1.2l-.065.065a1.567,1.567,0,0,1-1.109.374h-7.45l.015.076a4.792,4.792,0,0,0,1.013,2.18,4.115,4.115,0,0,0,3.26,1.4,4.426,4.426,0,0,0,2.306-.595A2.921,2.921,0,0,0,68.454,17.8a1.229,1.229,0,0,1,.351-.29.64.64,0,0,1,.269-.074.357.357,0,0,1,.277.131.689.689,0,0,1,.113.446,5.314,5.314,0,0,1-.88,2.967,6.287,6.287,0,0,1-2.461,2.157,7.9,7.9,0,0,1-3.651.81A8.187,8.187,0,0,1,58.463,23Zm-54.934.074A6.4,6.4,0,0,1,.945,20.537,8.053,8.053,0,0,1,0,16.5a8.44,8.44,0,0,1,.986-4.108A7.369,7.369,0,0,1,3.732,9.529,7.863,7.863,0,0,1,7.84,8.479a8.518,8.518,0,0,1,3.381.6,4.875,4.875,0,0,1,2.1,1.611,3.824,3.824,0,0,1,.725,2.273,2.611,2.611,0,0,1-2.82,2.826,2.593,2.593,0,0,1-2.03-.769,3.033,3.033,0,0,1-.693-2.108V11.851a2.1,2.1,0,0,0-.293-1.223.959.959,0,0,0-.831-.413,1.331,1.331,0,0,0-.97.438,2.927,2.927,0,0,0-.668,1.314,8.443,8.443,0,0,0-.237,2.165,7.79,7.79,0,0,0,.546,3.108,4.181,4.181,0,0,0,1.491,1.885,3.8,3.8,0,0,0,2.151.628,5.066,5.066,0,0,0,2.021-.355,2.537,2.537,0,0,0,1.255-1.2,1.734,1.734,0,0,1,.383-.3.621.621,0,0,1,.269-.067.376.376,0,0,1,.268.157.664.664,0,0,1,.09.438,5.712,5.712,0,0,1-.995,2.859,5.925,5.925,0,0,1-2.33,1.95,7.774,7.774,0,0,1-3.423.711A7.735,7.735,0,0,1,3.529,23.074Zm100.954-.14a7.065,7.065,0,0,1-2.779-2.719,7.942,7.942,0,0,1-.995-4.017,7.506,7.506,0,0,1,1.043-3.926A7.6,7.6,0,0,1,104.638,9.5a8.57,8.57,0,0,1,4.237-1.025,8.394,8.394,0,0,1,4.156.992,7.107,7.107,0,0,1,2.771,2.744,8.069,8.069,0,0,1,.994,4.05,7.369,7.369,0,0,1-3.9,6.645,8.71,8.71,0,0,1-4.261,1.008A8.451,8.451,0,0,1,104.483,22.934Zm-85.666,0a7.06,7.06,0,0,1-2.779-2.719,7.933,7.933,0,0,1-.995-4.017,7.506,7.506,0,0,1,1.043-3.926A7.594,7.594,0,0,1,18.972,9.5a8.567,8.567,0,0,1,4.237-1.025,8.394,8.394,0,0,1,4.156.992,7.112,7.112,0,0,1,2.771,2.744,8.068,8.068,0,0,1,.994,4.05,7.37,7.37,0,0,1-3.9,6.645,8.713,8.713,0,0,1-4.262,1.008A8.45,8.45,0,0,1,18.817,22.934Zm157.323.686a.771.771,0,0,1-.562-.2.726.726,0,0,1-.2-.545.741.741,0,0,1,.122-.438,1.347,1.347,0,0,1,.334-.322l.374-.148a.553.553,0,0,0,.293-.314,2.183,2.183,0,0,0,.082-.711v-8.4a1.314,1.314,0,0,0-.09-.57.613.613,0,0,0-.3-.273l-.424-.05a1.042,1.042,0,0,1-.334-.282.642.642,0,0,1-.106-.38.742.742,0,0,1,.163-.471,1.264,1.264,0,0,1,.554-.355l4.629-1.339a5.024,5.024,0,0,1,.685-.231,2.082,2.082,0,0,1,.473-.066.474.474,0,0,1,.416.2l.03.048a1.8,1.8,0,0,1,.158.663l.124,2.569.028-.1c.056-.179.116-.35.182-.515a4.923,4.923,0,0,1,1.573-2.2,3.53,3.53,0,0,1,2.135-.719,2.589,2.589,0,0,1,2.152.942,4.549,4.549,0,0,1,.75,2.86,4.166,4.166,0,0,1-.782,2.793,2.565,2.565,0,0,1-2.021.893,2.352,2.352,0,0,1-1.785-.611,2.539,2.539,0,0,1-.611-1.736l-.016-.661a1.264,1.264,0,0,0-.147-.6.458.458,0,0,0-.424-.214.629.629,0,0,0-.513.305,2.357,2.357,0,0,0-.335.934,9.284,9.284,0,0,0-.114,1.6V20.81a1.565,1.565,0,0,0,.147.735.649.649,0,0,0,.457.339l1.222.247a.689.689,0,0,1,.489.257.819.819,0,0,1,.147.488.732.732,0,0,1-.2.537.8.8,0,0,1-.595.206Zm-89.285,0a.773.773,0,0,1-.562-.2.729.729,0,0,1-.2-.545.741.741,0,0,1,.122-.438,1.347,1.347,0,0,1,.334-.322l.375-.148a.555.555,0,0,0,.293-.314,2.215,2.215,0,0,0,.081-.711v-8.4a1.331,1.331,0,0,0-.089-.57.617.617,0,0,0-.3-.273l-.424-.05a1.047,1.047,0,0,1-.335-.282.642.642,0,0,1-.105-.38.737.737,0,0,1,.163-.471,1.264,1.264,0,0,1,.554-.355l4.629-1.339a5.018,5.018,0,0,1,.684-.231,2.1,2.1,0,0,1,.473-.066.471.471,0,0,1,.415.2l.03.048a1.812,1.812,0,0,1,.158.663l.123,2.568.029-.095c.055-.179.115-.35.182-.515a4.915,4.915,0,0,1,1.572-2.2,3.534,3.534,0,0,1,2.136-.719,2.587,2.587,0,0,1,2.151.942,4.543,4.543,0,0,1,.75,2.86,4.161,4.161,0,0,1-.782,2.793,2.563,2.563,0,0,1-2.021.893,2.352,2.352,0,0,1-1.785-.611,2.543,2.543,0,0,1-.611-1.736l-.016-.661a1.253,1.253,0,0,0-.147-.6.456.456,0,0,0-.424-.214.629.629,0,0,0-.513.305,2.344,2.344,0,0,0-.334.934,9.2,9.2,0,0,0-.114,1.6V20.81a1.554,1.554,0,0,0,.147.735.649.649,0,0,0,.456.339l1.222.247a.685.685,0,0,1,.489.257.819.819,0,0,1,.147.488.732.732,0,0,1-.2.537A.8.8,0,0,1,95,23.62Zm-42.491,0a.744.744,0,0,1-.529-.19.7.7,0,0,1-.2-.537.771.771,0,0,1,.138-.479.982.982,0,0,1,.432-.3l.7-.215a.728.728,0,0,0,.408-.314,1.241,1.241,0,0,0,.147-.661V11.372a.639.639,0,0,0-.114-.388,1,1,0,0,0-.424-.29l-.945-.313a1.529,1.529,0,0,1-.538-.389.788.788,0,0,1-.163-.5.64.64,0,0,1,.2-.488l.054-.045a.833.833,0,0,1,.508-.145h1.43l-.011-.1a1.352,1.352,0,0,0-.229-.556q-.244-.355-.553-.8a5.223,5.223,0,0,1-.554-1.066,4.185,4.185,0,0,1-.245-1.529A4.392,4.392,0,0,1,45.343,1.3,6.1,6.1,0,0,1,49.515,0a6.579,6.579,0,0,1,2.894.562,4.01,4.01,0,0,1,1.719,1.5A3.835,3.835,0,0,1,54.7,4.1a2.6,2.6,0,0,1-.677,1.958,2.394,2.394,0,0,1-1.735.653,2.477,2.477,0,0,1-1.891-.76,2.823,2.823,0,0,1-.717-2.017V2.462a1.311,1.311,0,0,0-.228-.85.863.863,0,0,0-.7-.273,1.068,1.068,0,0,0-.913.413,1.955,1.955,0,0,0-.31,1.19,3.143,3.143,0,0,0,.366,1.488,6.565,6.565,0,0,0,.9,1.3q.539.6,1.076,1.156a8.265,8.265,0,0,1,.905,1.091l.069.108a1.987,1.987,0,0,1,.264.64l.015.087h2.414a.932.932,0,0,1,.579.157.577.577,0,0,1,.2.488.968.968,0,0,1-.423.81,2.26,2.26,0,0,1-1.336.314H51.406v10.3a1.473,1.473,0,0,0,.139.71.587.587,0,0,0,.448.3l1.4.215a.9.9,0,0,1,.554.239.728.728,0,0,1,.179.52.674.674,0,0,1-.766.76Zm-11.376,0a.745.745,0,0,1-.53-.19.7.7,0,0,1-.2-.537.766.766,0,0,1,.139-.479.977.977,0,0,1,.432-.3l.7-.215a.723.723,0,0,0,.407-.314,1.233,1.233,0,0,0,.147-.661V11.372a.639.639,0,0,0-.114-.388,1,1,0,0,0-.423-.29l-.946-.313a1.525,1.525,0,0,1-.537-.389.788.788,0,0,1-.163-.5A.636.636,0,0,1,32.1,9l.053-.045a.836.836,0,0,1,.509-.145h1.43l-.012-.1a1.35,1.35,0,0,0-.229-.556q-.244-.355-.554-.8a5.269,5.269,0,0,1-.554-1.066A4.186,4.186,0,0,1,32.5,4.76,4.394,4.394,0,0,1,33.966,1.3,6.1,6.1,0,0,1,38.139,0a6.574,6.574,0,0,1,2.893.562,4.018,4.018,0,0,1,1.72,1.5,3.843,3.843,0,0,1,.57,2.041,2.6,2.6,0,0,1-.676,1.958,2.4,2.4,0,0,1-1.736.653,2.48,2.48,0,0,1-1.891-.76A2.822,2.822,0,0,1,38.3,3.934V2.462a1.31,1.31,0,0,0-.229-.85.862.862,0,0,0-.7-.273,1.07,1.07,0,0,0-.913.413,1.961,1.961,0,0,0-.31,1.19,3.134,3.134,0,0,0,.367,1.488,6.49,6.49,0,0,0,.9,1.3q.537.6,1.076,1.156a8.325,8.325,0,0,1,.9,1.091l.069.108a1.99,1.99,0,0,1,.265.64l.014.087h2.415a.934.934,0,0,1,.579.157.58.58,0,0,1,.2.488.967.967,0,0,1-.424.81,2.26,2.26,0,0,1-1.336.314H40.029v10.3a1.483,1.483,0,0,0,.139.71.59.59,0,0,0,.448.3l1.4.215a.892.892,0,0,1,.553.239.728.728,0,0,1,.18.52.675.675,0,0,1-.767.76Z" transform="translate(32.9 0.444)" fill="#fff"/>
    <path id="Combined_Shape" data-name="Combined Shape" d="M9.386,22.115a6.773,6.773,0,0,1-1.84-5.625A10.018,10.018,0,0,1,10.511,10.5a9.845,9.845,0,0,1,6.835-3,6.667,6.667,0,0,1,4.777,1.878c2.89,2.891,2.384,8.1-1.127,11.614a10.032,10.032,0,0,1-5.987,2.965c-.3.029-.585.043-.856.043A6.573,6.573,0,0,1,9.386,22.115Zm11.64-11.344a11.494,11.494,0,0,1-1.934,2.24,10.452,10.452,0,0,1-4,1.8l-.157.046c-3.035.881-4.941,3.394-5.369,7.075.328-.4.635-.812.931-1.215a11.482,11.482,0,0,1,2.194-2.449,10.208,10.208,0,0,1,3.754-1.6c3.1-.851,5.056-3.379,5.5-7.117C21.618,9.95,21.316,10.367,21.026,10.771ZM3,13.491C-.509,9.977-1.013,4.768,1.877,1.877S9.975-.509,13.489,3a10.569,10.569,0,0,1,2.165,3.152A11.352,11.352,0,0,0,10.9,8.2a7.19,7.19,0,0,0-1.836-.84A10.765,10.765,0,0,1,4.907,5.509,23.446,23.446,0,0,1,2.055,2.056c.4,3.335,2.092,6.181,5.5,7.117.576.158,1.128.319,1.666.511a11.605,11.605,0,0,0-3.07,5.971A10.61,10.61,0,0,1,3,13.491Z" transform="translate(0.9 1.444)" fill="#0e8784"/>
  </g>
</svg>
